<?xml version="1.0" encoding="iso-8859-1"?>
<!-- Generator: Adobe Illustrator 19.0.0, SVG Export Plug-In . SVG Version: 6.00 Build 0)  -->
<svg version="1.1" id="Layer_1" xmlns="http://www.w3.org/2000/svg" xmlns:xlink="http://www.w3.org/1999/xlink" x="0px" y="0px"
	 viewBox="0 0 512 512" style="enable-background:new 0 0 512 512;" xml:space="preserve">
<path style="fill:#FFC61B;" d="M256,512C114.842,512,0,397.158,0,256c0-35.475,7.129-69.832,21.186-102.115
	C38.33,114.514,65.408,79.767,99.492,53.4c34.612-26.775,75.717-44.287,118.873-50.642C230.755,0.928,243.419,0,256,0
	c49.448,0,97.441,14.127,138.791,40.856c40.267,26.029,72.349,62.647,92.777,105.896C503.779,181.035,512,217.794,512,256
	c0,1.658-0.014,3.316-0.059,4.973c0,0.063-0.001,0.124-0.001,0.163c-0.567,29.551-6.145,58.441-16.585,85.869
	c-2.639,6.947-5.669,13.955-9.003,20.824c-0.024,0.05-0.049,0.101-0.075,0.151l-0.173,0.345
	c-9.666,19.8-22.006,38.445-36.614,55.296c-5.205,6-14.287,6.649-20.287,1.447c-6.002-5.203-6.65-14.287-1.447-20.287
	c12.974-14.966,23.929-31.518,32.561-49.197l0.196-0.393c2.948-6.081,5.626-12.275,7.956-18.409
	c9.249-24.3,14.197-49.9,14.711-76.094c0-0.119,0.001-0.253,0.004-0.339c0.04-1.45,0.052-2.899,0.052-4.349
	c0-33.921-7.292-66.543-21.674-96.956C424.179,79.899,343.493,28.764,256,28.764c-11.181,0-22.43,0.824-33.438,2.449
	c-76.843,11.318-143.9,62.722-175.004,134.156C35.088,194.008,28.764,224.501,28.764,256c0,125.299,101.937,227.236,227.236,227.236
	c33.047,0,64.9-6.928,94.675-20.592c7.22-3.315,15.758-0.147,19.069,7.072c3.314,7.22,0.147,15.757-7.072,19.069
	C329.108,504.189,293.218,512,256,512z"/>
<path style="fill:#FFEEC0;" d="M497.618,256c0,1.582-0.014,3.164-0.058,4.746v0.115c-0.547,28.505-6.04,55.788-15.648,81.028
	c-2.546,6.702-5.393,13.26-8.5,19.66c-0.058,0.115-0.115,0.23-0.173,0.345c-10.729-4.473-20.293-11.089-28.174-19.301
	c-10.096-10.542-17.46-23.702-20.983-38.386l-15.259-63.41c-0.849-3.524-3.063-6.558-6.156-8.457l-14.022-8.586
	c-4.415-2.704-6.932-7.666-6.486-12.814l1.05-12.239c0.36-4.214,2.387-8.111,5.623-10.83l34.229-28.822
	c3.236-2.733,7.421-4.056,11.649-3.696l39.853-2.459C489.348,184.162,497.618,219.11,497.618,256z"/>
<path style="fill:#FFC61B;" d="M473.233,376.28c-1.848,0-3.723-0.358-5.527-1.11c-12.511-5.215-23.62-12.824-33.017-22.617
	c-12.048-12.58-20.548-28.133-24.592-44.988l-15.187-63.107l-13.777-8.435c-9.127-5.589-14.225-15.674-13.305-26.319l1.05-12.229
	c0.679-7.955,4.579-15.469,10.702-20.612l34.218-28.812c5.786-4.887,13.233-7.457,20.911-7.103l38.968-2.405
	c5.852-0.368,11.372,2.888,13.887,8.206C503.779,181.035,512,217.794,512,256c0,1.657-0.014,3.315-0.059,4.972
	c0,0.063-0.001,0.125-0.001,0.164c-0.567,29.554-6.147,58.444-16.585,85.869c-2.638,6.947-5.668,13.955-9.003,20.824
	c-0.024,0.05-0.049,0.101-0.075,0.151l-0.188,0.377C483.574,373.353,478.519,376.28,473.233,376.28z M396.527,211.718l13.651,8.359
	c6.399,3.928,10.877,10.089,12.627,17.356l15.261,63.41c2.859,11.917,8.869,22.911,17.386,31.803
	c3.357,3.498,7.027,6.604,10.979,9.297c0.705-1.723,1.384-3.444,2.036-5.16c9.249-24.3,14.198-49.9,14.711-76.098
	c0-0.119,0.001-0.25,0.004-0.335c0.04-1.45,0.052-2.901,0.052-4.351c0-30.664-5.96-60.266-17.729-88.136l-29.912,1.845
	c-0.702,0.043-1.405,0.035-2.104-0.024l-0.147-0.006c-0.265,0-0.653,0.062-1.005,0.361l-34.245,28.835
	c-0.324,0.272-0.522,0.652-0.557,1.051L396.527,211.718z"/>
<path style="fill:#FFEEC0;" d="M247.342,272.367c0,0-27.613,75.923-40.025,109.965c-3.509,9.607-12.642,15.978-22.839,15.978h-0.273
	c-10.355-0.101-19.488-6.76-22.781-16.582l-31.698-94.878c-0.59-1.769-1.524-3.38-2.718-4.76c-1.194-1.381-2.661-2.531-4.329-3.365
	c-9.19-4.588-16.683-23.702-16.683-23.702l-3.308-27.729c-0.949-7.853-3.092-15.446-6.328-22.551
	c-3.25-7.105-7.579-13.72-12.886-19.574c-10.139-11.189-23.356-19.114-37.997-22.767l-4.188-1.047
	c-3.633-0.908-5.531-4.916-3.933-8.303C71.075,81.559,138.82,29.269,219.716,17.096c0.444-0.066,0.883,0.161,1.083,0.564
	l17.972,35.971c0.978,1.942,1.481,4.099,1.481,6.271v2.862c0,4.89-2.546,9.435-6.716,11.98l-11.506,7.033
	c-3.063,1.87-5.293,4.832-6.227,8.298l-14.713,53.961c-0.877,3.207-2.776,5.94-5.293,7.853c-2.502,1.913-5.638,3.02-8.96,3.02
	c-1.827,0-3.653-0.331-5.35-0.992l-8.586-3.25c-6.199-2.33-15.403-1.064-24.262,1.323c-11.29,3.049-18.538,13.203-18.538,24.119
	c0,3.078,0.561,6.199,1.783,9.248c2.833,7.076,8.73,12.469,16.036,14.641c9.794,2.905,18.308,25.154,45.275,25.154
	c0,0,47.504-6.026,53.976,8.672C252.52,245.961,251.872,259.912,247.342,272.367z"/>
<path style="fill:#FFC61B;" d="M184.478,412.692h-0.273c-16.6-0.161-31.177-10.768-36.417-26.392l-31.663-94.773
	c-13.042-6.607-21.295-25.581-23.519-31.255c-0.447-1.139-0.746-2.331-0.892-3.545l-3.308-27.729
	c-0.765-6.331-2.494-12.492-5.136-18.294c-2.659-5.812-6.179-11.16-10.453-15.875c-8.26-9.114-18.917-15.501-30.824-18.472
	l-4.195-1.048c-5.924-1.481-10.821-5.497-13.437-11.017s-2.622-11.854-0.016-17.376C60.893,69.429,133.129,15.581,217.576,2.875
	c0.757-0.114,1.529-0.171,2.294-0.171c5.879,0,11.165,3.266,13.794,8.524l17.973,35.975c1.953,3.877,2.997,8.283,2.997,12.698v2.862
	c0,9.84-5.213,19.135-13.607,24.257l-11.382,6.957l-14.68,53.842c-1.686,6.166-5.402,11.674-10.467,15.521
	c-5.009,3.828-11.293,5.951-17.661,5.951c-3.654,0-7.213-0.664-10.574-1.975l-8.455-3.2c-0.004-0.001-0.831-0.303-2.889-0.303
	c-2.229,0-6.214,0.358-12.538,2.062c-4.648,1.256-7.9,5.464-7.9,10.233c0,1.343,0.252,2.652,0.749,3.895
	c1.212,3.026,3.683,5.287,6.784,6.209c6.798,2.016,11.618,6.857,16.279,11.537c6.524,6.551,12.692,12.745,24.13,13.011
	c2.944-0.332,11.687-1.214,21.6-1.214c16.385,0,39.011,1.916,46.306,18.482c6.515,14.78,6.702,32.275,0.525,49.256
	c0,0-27.615,75.93-40.029,109.975C215.272,402.474,200.664,412.692,184.478,412.692z M129.207,265.909
	c3.325,1.678,6.243,3.955,8.68,6.774c2.458,2.842,4.303,6.079,5.482,9.619l31.697,94.87c1.339,3.995,5.071,6.718,9.281,6.76h0.132
	c4.154,0,7.903-2.625,9.33-6.531c12.407-34.032,40.018-109.946,40.018-109.946c3.426-9.419,3.676-18.753,0.739-26.47
	c-1.717-0.797-7.18-2.671-20.539-2.671c-10.067,0-18.943,1.099-19.032,1.11c-0.594,0.075-1.202,0.114-1.801,0.114
	c-23.881,0-37.277-13.452-45.28-21.488c-1.576-1.583-3.69-3.706-4.735-4.46c-11.278-3.561-20.237-11.867-24.646-22.885
	c-1.865-4.653-2.815-9.564-2.815-14.592c0-17.737,11.995-33.365,29.171-38.003c7.525-2.028,14.263-3.056,20.031-3.056
	c4.85,0,9.238,0.725,13.042,2.156l8.875,3.322c0.131,0,0.207-0.05,0.227-0.065c0.063-0.049,0.121-0.106,0.152-0.22l14.71-53.954
	c1.891-7.008,6.373-12.983,12.609-16.791l11.334-6.928v-2.586l-13.508-27.035c-67.55,13.103-125.33,56.103-157.486,117.184
	c15.065,4.858,28.541,13.551,39.256,25.374c6.258,6.903,11.409,14.726,15.308,23.249c3.876,8.511,6.406,17.524,7.528,26.81
	l3.078,25.788C122.774,257.671,126.992,264.431,129.207,265.909z"/>
<g>
</g>
<g>
</g>
<g>
</g>
<g>
</g>
<g>
</g>
<g>
</g>
<g>
</g>
<g>
</g>
<g>
</g>
<g>
</g>
<g>
</g>
<g>
</g>
<g>
</g>
<g>
</g>
<g>
</g>
</svg>
