<svg id="Layer_1" data-name="Layer 1" xmlns="http://www.w3.org/2000/svg" viewBox="0 0 380.3 488.3"><defs><style>.cls-1{fill:#ffeec0;}.cls-2{fill:#ffc61b;}</style></defs><title>guias</title><path class="cls-1" d="M137,29.6v92.5a24.3,24.3,0,0,1-24.3,24.3H18a2.5,2.5,0,0,1-2.5-2.9A57.5,57.5,0,0,1,31.9,110L98.2,43.8a57.5,57.5,0,0,1,36.1-16.7A2.5,2.5,0,0,1,137,29.6Z" transform="translate(0 -11.8)"/><path class="cls-2" d="M112.7,161.4H18A17.6,17.6,0,0,1,.6,141.6,72.9,72.9,0,0,1,21.3,99.3L87.5,33.1a72.6,72.6,0,0,1,45.5-21,17.6,17.6,0,0,1,19,17.5v92.5A39.4,39.4,0,0,1,112.7,161.4ZM34.8,131.3h77.9a9.2,9.2,0,0,0,9.2-9.2V45.5a42.4,42.4,0,0,0-13.1,8.9L42.6,120.6A42.4,42.4,0,0,0,34.8,131.3Z" transform="translate(0 -11.8)"/><path class="cls-2" d="M317.1,500.2H63.1A63.2,63.2,0,0,1,0,437V150.7c0-1.7.1-3.6.2-5.4A72.6,72.6,0,0,1,21.3,99.3L87.5,33.1a72.3,72.3,0,0,1,49-21.2H317.1A63.2,63.2,0,0,1,380.3,75V437A63.2,63.2,0,0,1,317.1,500.2ZM138.9,42h-1.4a42.2,42.2,0,0,0-28.6,12.4L42.6,120.6a42.4,42.4,0,0,0-12.3,26.8c-.1,1.1-.1,2.2-.1,3.2V437a33,33,0,0,0,33,33h254a33,33,0,0,0,33-33V75a33,33,0,0,0-33-33H138.9Z" transform="translate(0 -11.8)"/><path class="cls-2" d="M90.4,485.7a15.1,15.1,0,0,1-15.1-15.1V210.8a15.1,15.1,0,1,1,30.1,0V470.7A15.1,15.1,0,0,1,90.4,485.7Z" transform="translate(0 -11.8)"/></svg>