<?xml version="1.0" encoding="utf-8"?>
<!-- Generator: Adobe Illustrator 23.0.0, SVG Export Plug-In . SVG Version: 6.00 Build 0)  -->
<svg version="1.1" xmlns="http://www.w3.org/2000/svg" xmlns:xlink="http://www.w3.org/1999/xlink" x="0px" y="0px"
	 viewBox="0 0 1980 1980" style="enable-background:new 0 0 1980 1980;" xml:space="preserve">
<style type="text/css">
	.st0{opacity:0.6;fill:#FFFFFF;enable-background:new    ;}
	.st1{fill:#FFFFFF;}
	.st2{opacity:0.6;fill:#FFFFFF;}
</style>
<g id="Layer_1">
	<title>blanco</title>
	<polygon class="st0" points="1521.2,1240.6 1521.2,394.3 1332.7,537 	"/>
	<path class="st0" d="M1509.8,251.3H1271c-6.3,0-11.4,5.1-11.4,11.4c0,1,0.1,1.9,0.4,2.9l65.8,245.7l190.9-144.5
		c2.8-2.2,4.5-5.5,4.5-9.1v-95C1521.2,256.4,1516.1,251.3,1509.8,251.3L1509.8,251.3z"/>
	<path class="st1" d="M1241.2,1272.6h249.3c6.4,0,11.5-5.2,11.5-11.5c0-1-0.1-1.9-0.4-2.9l-189.1-705.9l-78.2,59.2
		c-2.8,2.2-4.5,5.5-4.5,9.1v640.5C1229.8,1267.4,1234.9,1272.5,1241.2,1272.6z"/>
	<polygon class="st1" points="1231.8,251.3 1229.7,251.3 1229.7,584.1 1305.6,526.6 	"/>
	<polygon class="st1" points="461.3,1243.5 461.3,397.2 649.8,539.9 	"/>
	<path class="st1" d="M472.8,254.2h238.5c6.4,0,11.5,5.2,11.5,11.5c0,1-0.1,2-0.4,3l-65.7,245.5L465.9,369.7
		c-2.9-2.2-4.6-5.6-4.6-9.2v-94.8C461.3,259.3,466.4,254.2,472.8,254.2C472.8,254.2,472.8,254.2,472.8,254.2z"/>
	<path class="st1" d="M741.5,1275.5H491.7c-6.2,0-11.3-5.1-11.3-11.3c0-1,0.1-1.9,0.4-2.9L670,555.2l78.3,59.3
		c2.8,2.1,4.5,5.5,4.5,9v640.8C752.7,1270.5,747.7,1275.5,741.5,1275.5z"/>
	<polygon class="st1" points="750.7,254.2 752.8,254.2 752.8,587 676.9,529.5 	"/>
	<path class="st1" d="M1186.2,266.7l-165.1,139.2c-4.7,4-5.2,11-1.3,15.6c0.4,0.5,0.8,0.9,1.3,1.3l165.1,139.9
		c4.7,4,11.7,3.4,15.6-1.2c1.7-2,2.7-4.6,2.7-7.3V275.1c0-6.1-5-11.1-11.1-11.1C1190.7,264.1,1188.2,265,1186.2,266.7z"/>
	<path class="st1" d="M991.3,431.1l-194.4-164c-4.8-4-12-3.4-16.1,1.5c-1.7,2-2.6,4.6-2.6,7.2v322.7c0,3.6,1.7,6.9,4.5,9.1
		l201.7,152.1c4.1,3,9.6,3,13.7,0l190.4-143.5c5-3.8,6-10.9,2.2-16c-0.5-0.7-1.1-1.3-1.7-1.8L991.4,431L991.3,431.1z"/>
</g>
<g id="Layer_2">
	<g>
		<path class="st1" d="M280.3,1655.5l130.9-179.6v273.6h-53.7v-110.8l-77.1,106.5L203,1638.7v110.8h-53.7v-273.6L280.3,1655.5z"/>
		<path class="st1" d="M606.5,1643.9v-161.7h54.1V1644c0,29.9-10.6,55.3-31.7,76.5c-21.2,21-46.7,31.5-76.3,31.5
			c-30,0-55.5-10.5-76.6-31.5c-21.1-21.1-31.7-46.6-31.7-76.5v-161.9h54.1v161.7c0,29.1,24.7,53.7,54.1,53.7
			C581.6,1697.6,606.5,1672.8,606.5,1643.9z"/>
		<path class="st1" d="M854.8,1629.9v-148.4h53.9V1755l-161.2-153.6v148.4h-53.7v-273.3L854.8,1629.9z"/>
		<path class="st1" d="M1104.1,1643.9v-161.7h54.1V1644c0,29.9-10.6,55.3-31.7,76.5c-21.2,21-46.7,31.5-76.3,31.5
			c-30,0-55.5-10.5-76.6-31.5c-21.1-21.1-31.7-46.6-31.7-76.5v-161.9H996v161.7c0,29.1,24.7,53.7,54.1,53.7
			C1079.1,1697.6,1104.1,1672.8,1104.1,1643.9z"/>
		<path class="st1" d="M1322.4,1655.5l130.9-179.6v273.6h-53.7v-110.8l-77.1,106.5l-77.3-106.5v110.8h-53.7v-273.6L1322.4,1655.5z"
			/>
		<path class="st2" d="M1530.3,1475.4l-7,87.1h-40.1l-6.8-87.1H1530.3z"/>
		<path class="st2" d="M1626,1481v268.5h-53.7V1552l-27,8v-56.1L1626,1481z"/>
		<path class="st2" d="M1691.7,1749.5l46.4-80.9c-24.5-1.8-45.2-11.7-61.9-29.7c-16.9-18-25.4-39.4-25.4-64
			c0-25.8,9.2-47.9,27.5-66.5c18.1-18.4,40.2-27.5,66.3-27.5c26,0,48.2,9.2,66.5,27.5c18.5,18.5,27.7,40.6,27.7,66.5
			c0,15-3.5,29.4-10.4,43c-1.7,3-4.2,8.4-5.6,10.8l-69.7,120.7L1691.7,1749.5z M1744.8,1615c22.1,0,40.5-18.4,40.5-40.3
			c0-21.9-18.4-40.5-40.5-40.5c-22.2,0-40.3,18.6-40.3,40.5C1704.5,1596.5,1722.8,1614.9,1744.8,1615z"/>
	</g>
</g>
</svg>
